<svg xmlns="http://www.w3.org/2000/svg" viewBox="0 0 38 22" width="836" height="484" shape-rendering="crispEdges"><rect x="0" y="0" width="38" height="22" fill="#0a0d10"></rect><rect x="3" y="2" width="1" height="1" fill="#536b5f"></rect><rect x="10" y="7" width="1" height="1" fill="#536b5f"></rect><rect x="17" y="0" width="1" height="1" fill="#536b5f"></rect><rect x="24" y="5" width="1" height="1" fill="#536b5f"></rect><rect x="31" y="10" width="1" height="1" fill="#536b5f"></rect><rect x="0" y="3" width="1" height="1" fill="#536b5f"></rect><rect x="7" y="8" width="1" height="1" fill="#536b5f"></rect><rect x="14" y="1" width="1" height="1" fill="#536b5f"></rect><rect x="21" y="6" width="1" height="1" fill="#536b5f"></rect><rect x="29" y="1" width="1" height="1" fill="#9ff7cb"></rect><rect x="27" y="2" width="1" height="1" fill="#9ff7cb"></rect><rect x="28" y="2" width="1" height="1" fill="#9ff7cb"></rect><rect x="29" y="2" width="1" height="1" fill="#e8fff4"></rect><rect x="30" y="2" width="1" height="1" fill="#9ff7cb"></rect><rect x="31" y="2" width="1" height="1" fill="#9ff7cb"></rect><rect x="27" y="3" width="1" height="1" fill="#9ff7cb"></rect><rect x="28" y="3" width="1" height="1" fill="#e8fff4"></rect><rect x="29" y="3" width="1" height="1" fill="#e8fff4"></rect><rect x="30" y="3" width="1" height="1" fill="#e8fff4"></rect><rect x="31" y="3" width="1" height="1" fill="#9ff7cb"></rect><rect x="26" y="4" width="1" height="1" fill="#9ff7cb"></rect><rect x="27" y="4" width="1" height="1" fill="#e8fff4"></rect><rect x="28" y="4" width="1" height="1" fill="#e8fff4"></rect><rect x="29" y="4" width="1" height="1" fill="#e8fff4"></rect><rect x="30" y="4" width="1" height="1" fill="#e8fff4"></rect><rect x="31" y="4" width="1" height="1" fill="#e8fff4"></rect><rect x="32" y="4" width="1" height="1" fill="#9ff7cb"></rect><rect x="27" y="5" width="1" height="1" fill="#9ff7cb"></rect><rect x="28" y="5" width="1" height="1" fill="#e8fff4"></rect><rect x="29" y="5" width="1" height="1" fill="#e8fff4"></rect><rect x="30" y="5" width="1" height="1" fill="#e8fff4"></rect><rect x="31" y="5" width="1" height="1" fill="#9ff7cb"></rect><rect x="27" y="6" width="1" height="1" fill="#9ff7cb"></rect><rect x="28" y="6" width="1" height="1" fill="#9ff7cb"></rect><rect x="29" y="6" width="1" height="1" fill="#e8fff4"></rect><rect x="30" y="6" width="1" height="1" fill="#9ff7cb"></rect><rect x="31" y="6" width="1" height="1" fill="#9ff7cb"></rect><rect x="29" y="7" width="1" height="1" fill="#9ff7cb"></rect><rect x="27" y="3" width="1" height="1" fill="#0a0d10"></rect><rect x="28" y="3" width="1" height="1" fill="#0a0d10"></rect><rect x="29" y="3" width="1" height="1" fill="#0a0d10"></rect><rect x="26" y="4" width="1" height="1" fill="#0a0d10"></rect><rect x="27" y="4" width="1" height="1" fill="#0a0d10"></rect><rect x="28" y="4" width="1" height="1" fill="#0a0d10"></rect><rect x="29" y="4" width="1" height="1" fill="#0a0d10"></rect><rect x="30" y="4" width="1" height="1" fill="#0a0d10"></rect><rect x="27" y="5" width="1" height="1" fill="#0a0d10"></rect><rect x="28" y="5" width="1" height="1" fill="#0a0d10"></rect><rect x="29" y="5" width="1" height="1" fill="#0a0d10"></rect><rect x="30" y="5" width="1" height="1" fill="#0a0d10"></rect><rect x="27" y="6" width="1" height="1" fill="#0a0d10"></rect><rect x="28" y="6" width="1" height="1" fill="#0a0d10"></rect><rect x="29" y="6" width="1" height="1" fill="#0a0d10"></rect><rect x="30" y="6" width="1" height="1" fill="#0a0d10"></rect><rect x="29" y="7" width="1" height="1" fill="#0a0d10"></rect><rect x="8" y="6" width="9" height="4" fill="#3a3a44"></rect><rect x="8" y="6" width="9" height="1" fill="#54545f"></rect><rect x="8" y="9" width="9" height="1" fill="#26262e"></rect><rect x="15" y="7" width="1" height="1" fill="#46d68c"></rect><rect x="15" y="8" width="1" height="1" fill="#e8a24a"></rect><rect x="9" y="7" width="5" height="1" fill="#26262e"></rect><rect x="8" y="10" width="9" height="4" fill="#3a3a44"></rect><rect x="8" y="10" width="9" height="1" fill="#54545f"></rect><rect x="8" y="13" width="9" height="1" fill="#26262e"></rect><rect x="15" y="11" width="1" height="1" fill="#46d68c"></rect><rect x="15" y="12" width="1" height="1" fill="#e8a24a"></rect><rect x="9" y="11" width="5" height="1" fill="#26262e"></rect><rect x="8" y="14" width="9" height="4" fill="#3a3a44"></rect><rect x="8" y="14" width="9" height="1" fill="#54545f"></rect><rect x="8" y="17" width="9" height="1" fill="#26262e"></rect><rect x="15" y="15" width="1" height="1" fill="#46d68c"></rect><rect x="15" y="16" width="1" height="1" fill="#e8a24a"></rect><rect x="9" y="15" width="5" height="1" fill="#26262e"></rect><rect x="21" y="4" width="9" height="4" fill="#3a3a44"></rect><rect x="21" y="4" width="9" height="1" fill="#54545f"></rect><rect x="21" y="7" width="9" height="1" fill="#26262e"></rect><rect x="28" y="5" width="1" height="1" fill="#46d68c"></rect><rect x="28" y="6" width="1" height="1" fill="#e8a24a"></rect><rect x="22" y="5" width="5" height="1" fill="#26262e"></rect><rect x="21" y="8" width="9" height="4" fill="#3a3a44"></rect><rect x="21" y="8" width="9" height="1" fill="#54545f"></rect><rect x="21" y="11" width="9" height="1" fill="#26262e"></rect><rect x="28" y="9" width="1" height="1" fill="#46d68c"></rect><rect x="28" y="10" width="1" height="1" fill="#e8a24a"></rect><rect x="22" y="9" width="5" height="1" fill="#26262e"></rect><rect x="21" y="12" width="9" height="4" fill="#3a3a44"></rect><rect x="21" y="12" width="9" height="1" fill="#54545f"></rect><rect x="21" y="15" width="9" height="1" fill="#26262e"></rect><rect x="28" y="13" width="1" height="1" fill="#46d68c"></rect><rect x="28" y="14" width="1" height="1" fill="#e8a24a"></rect><rect x="22" y="13" width="5" height="1" fill="#26262e"></rect><rect x="21" y="16" width="9" height="4" fill="#3a3a44"></rect><rect x="21" y="16" width="9" height="1" fill="#54545f"></rect><rect x="21" y="19" width="9" height="1" fill="#26262e"></rect><rect x="28" y="17" width="1" height="1" fill="#46d68c"></rect><rect x="28" y="18" width="1" height="1" fill="#e8a24a"></rect><rect x="22" y="17" width="5" height="1" fill="#26262e"></rect><rect x="14" y="3" width="1" height="1" fill="#9ff7cb"></rect><rect x="26" y="2" width="1" height="1" fill="#9ff7cb"></rect><rect x="0" y="19" width="38" height="3" fill="#1c5e3e"></rect><rect x="0" y="18" width="38" height="1" fill="#46d68c"></rect><rect x="2" y="20" width="2" height="1" fill="#16291d"></rect><rect x="8" y="20" width="2" height="1" fill="#16291d"></rect><rect x="14" y="20" width="2" height="1" fill="#16291d"></rect><rect x="20" y="20" width="2" height="1" fill="#16291d"></rect><rect x="26" y="20" width="2" height="1" fill="#16291d"></rect><rect x="32" y="20" width="2" height="1" fill="#16291d"></rect></svg>
