<svg xmlns="http://www.w3.org/2000/svg" viewBox="4 3 14 18" width="364" height="468" shape-rendering="crispEdges"><rect x="0" y="0" width="22" height="28" fill="#0a0d10"></rect><rect x="3" y="3" width="1" height="1" fill="#536b5f"></rect><rect x="8" y="2" width="1" height="1" fill="#536b5f"></rect><rect x="14" y="4" width="1" height="1" fill="#536b5f"></rect><rect x="19" y="2" width="1" height="1" fill="#536b5f"></rect><rect x="5" y="7" width="1" height="1" fill="#536b5f"></rect><rect x="17" y="8" width="1" height="1" fill="#536b5f"></rect><rect x="11" y="2" width="1" height="1" fill="#536b5f"></rect><rect x="20" y="11" width="1" height="1" fill="#536b5f"></rect><rect x="2" y="12" width="1" height="1" fill="#536b5f"></rect><rect x="18" y="2" width="1" height="1" fill="#9ff7cb"></rect><rect x="17" y="3" width="1" height="1" fill="#9ff7cb"></rect><rect x="18" y="3" width="1" height="1" fill="#e8fff4"></rect><rect x="19" y="3" width="1" height="1" fill="#9ff7cb"></rect><rect x="16" y="4" width="1" height="1" fill="#9ff7cb"></rect><rect x="17" y="4" width="1" height="1" fill="#e8fff4"></rect><rect x="18" y="4" width="1" height="1" fill="#e8fff4"></rect><rect x="19" y="4" width="1" height="1" fill="#e8fff4"></rect><rect x="20" y="4" width="1" height="1" fill="#9ff7cb"></rect><rect x="17" y="5" width="1" height="1" fill="#9ff7cb"></rect><rect x="18" y="5" width="1" height="1" fill="#e8fff4"></rect><rect x="19" y="5" width="1" height="1" fill="#9ff7cb"></rect><rect x="18" y="6" width="1" height="1" fill="#9ff7cb"></rect><rect x="16" y="4" width="1" height="1" fill="#0a0d10"></rect><rect x="17" y="4" width="1" height="1" fill="#0a0d10"></rect><rect x="18" y="4" width="1" height="1" fill="#0a0d10"></rect><rect x="17" y="5" width="1" height="1" fill="#0a0d10"></rect><rect x="18" y="5" width="1" height="1" fill="#0a0d10"></rect><rect x="18" y="6" width="1" height="1" fill="#0a0d10"></rect><rect x="8" y="19" width="3" height="3" fill="#3a3a44"></rect><rect x="8" y="19" width="3" height="1" fill="#54545f"></rect><rect x="8" y="19" width="1" height="3" fill="#54545f"></rect><rect x="10" y="19" width="1" height="3" fill="#26262e"></rect><rect x="8" y="21" width="3" height="1" fill="#26262e"></rect><rect x="11" y="19" width="3" height="3" fill="#3a3a44"></rect><rect x="11" y="19" width="3" height="1" fill="#54545f"></rect><rect x="11" y="19" width="1" height="3" fill="#54545f"></rect><rect x="13" y="19" width="1" height="3" fill="#26262e"></rect><rect x="11" y="21" width="3" height="1" fill="#26262e"></rect><rect x="8" y="16" width="3" height="3" fill="#46d68c"></rect><rect x="8" y="16" width="3" height="1" fill="#9ff7cb"></rect><rect x="8" y="16" width="1" height="3" fill="#9ff7cb"></rect><rect x="10" y="16" width="1" height="3" fill="#1c5e3e"></rect><rect x="8" y="18" width="3" height="1" fill="#1c5e3e"></rect><rect x="13" y="17" width="1" height="2" fill="#6a5536"></rect><rect x="13" y="16" width="1" height="1" fill="#e8a24a"></rect><rect x="13" y="15" width="1" height="1" fill="#f5c074"></rect><rect x="3" y="15" width="3" height="1" fill="#e8a24a"></rect><rect x="4" y="14" width="1" height="1" fill="#f5c074"></rect><rect x="6" y="15" width="1" height="1" fill="#e8a24a"></rect><rect x="3" y="16" width="3" height="2" fill="#e8fff4"></rect><rect x="5" y="16" width="1" height="1" fill="#22332a"></rect><rect x="3" y="18" width="3" height="2" fill="#46d68c"></rect><rect x="3" y="19" width="3" height="1" fill="#e8a24a"></rect><rect x="3" y="18" width="1" height="1" fill="#9ff7cb"></rect><rect x="3" y="20" width="1" height="2" fill="#1c5e3e"></rect><rect x="5" y="20" width="1" height="2" fill="#1c5e3e"></rect><rect x="6" y="17" width="1" height="1" fill="#e8fff4"></rect><rect x="6" y="14" width="1" height="3" fill="#6a5536"></rect><rect x="5" y="14" width="3" height="1" fill="#54545f"></rect><rect x="16" y="15" width="3" height="1" fill="#e8a24a"></rect><rect x="17" y="14" width="1" height="1" fill="#f5c074"></rect><rect x="15" y="15" width="1" height="1" fill="#e8a24a"></rect><rect x="16" y="16" width="3" height="2" fill="#e8fff4"></rect><rect x="16" y="16" width="1" height="1" fill="#22332a"></rect><rect x="16" y="18" width="3" height="2" fill="#46d68c"></rect><rect x="16" y="19" width="3" height="1" fill="#e8a24a"></rect><rect x="16" y="18" width="1" height="1" fill="#9ff7cb"></rect><rect x="16" y="20" width="1" height="2" fill="#1c5e3e"></rect><rect x="18" y="20" width="1" height="2" fill="#1c5e3e"></rect><rect x="15" y="18" width="1" height="1" fill="#e8fff4"></rect><rect x="12" y="17" width="3" height="3" fill="#46d68c"></rect><rect x="12" y="17" width="3" height="1" fill="#9ff7cb"></rect><rect x="12" y="17" width="1" height="3" fill="#9ff7cb"></rect><rect x="14" y="17" width="1" height="3" fill="#1c5e3e"></rect><rect x="12" y="19" width="3" height="1" fill="#1c5e3e"></rect><rect x="0" y="23" width="22" height="5" fill="#1c5e3e"></rect><rect x="0" y="22" width="22" height="1" fill="#46d68c"></rect><rect x="2" y="24" width="2" height="1" fill="#16291d"></rect><rect x="7" y="24" width="2" height="1" fill="#16291d"></rect><rect x="12" y="24" width="2" height="1" fill="#16291d"></rect><rect x="17" y="24" width="2" height="1" fill="#16291d"></rect></svg>
