<svg xmlns="http://www.w3.org/2000/svg" viewBox="4 3 14 18" width="364" height="468" shape-rendering="crispEdges"><rect x="0" y="0" width="22" height="28" fill="#0a0d10"></rect><rect x="3" y="3" width="1" height="1" fill="#536b5f"></rect><rect x="8" y="2" width="1" height="1" fill="#536b5f"></rect><rect x="14" y="4" width="1" height="1" fill="#536b5f"></rect><rect x="19" y="2" width="1" height="1" fill="#536b5f"></rect><rect x="5" y="7" width="1" height="1" fill="#536b5f"></rect><rect x="17" y="8" width="1" height="1" fill="#536b5f"></rect><rect x="11" y="2" width="1" height="1" fill="#536b5f"></rect><rect x="20" y="11" width="1" height="1" fill="#536b5f"></rect><rect x="2" y="12" width="1" height="1" fill="#536b5f"></rect><rect x="18" y="2" width="1" height="1" fill="#9ff7cb"></rect><rect x="17" y="3" width="1" height="1" fill="#9ff7cb"></rect><rect x="18" y="3" width="1" height="1" fill="#e8fff4"></rect><rect x="19" y="3" width="1" height="1" fill="#9ff7cb"></rect><rect x="16" y="4" width="1" height="1" fill="#9ff7cb"></rect><rect x="17" y="4" width="1" height="1" fill="#e8fff4"></rect><rect x="18" y="4" width="1" height="1" fill="#e8fff4"></rect><rect x="19" y="4" width="1" height="1" fill="#e8fff4"></rect><rect x="20" y="4" width="1" height="1" fill="#9ff7cb"></rect><rect x="17" y="5" width="1" height="1" fill="#9ff7cb"></rect><rect x="18" y="5" width="1" height="1" fill="#e8fff4"></rect><rect x="19" y="5" width="1" height="1" fill="#9ff7cb"></rect><rect x="18" y="6" width="1" height="1" fill="#9ff7cb"></rect><rect x="16" y="4" width="1" height="1" fill="#0a0d10"></rect><rect x="17" y="4" width="1" height="1" fill="#0a0d10"></rect><rect x="18" y="4" width="1" height="1" fill="#0a0d10"></rect><rect x="17" y="5" width="1" height="1" fill="#0a0d10"></rect><rect x="18" y="5" width="1" height="1" fill="#0a0d10"></rect><rect x="18" y="6" width="1" height="1" fill="#0a0d10"></rect><rect x="11" y="6" width="1" height="1" fill="#1c5e3e"></rect><rect x="8" y="7" width="1" height="1" fill="#1c5e3e"></rect><rect x="9" y="7" width="1" height="1" fill="#1c5e3e"></rect><rect x="10" y="7" width="1" height="1" fill="#1c5e3e"></rect><rect x="11" y="7" width="1" height="1" fill="#1c5e3e"></rect><rect x="12" y="7" width="1" height="1" fill="#1c5e3e"></rect><rect x="13" y="7" width="1" height="1" fill="#1c5e3e"></rect><rect x="14" y="7" width="1" height="1" fill="#1c5e3e"></rect><rect x="7" y="8" width="1" height="1" fill="#1c5e3e"></rect><rect x="8" y="8" width="1" height="1" fill="#1c5e3e"></rect><rect x="9" y="8" width="1" height="1" fill="#1c5e3e"></rect><rect x="10" y="8" width="1" height="1" fill="#1c5e3e"></rect><rect x="11" y="8" width="1" height="1" fill="#1c5e3e"></rect><rect x="12" y="8" width="1" height="1" fill="#1c5e3e"></rect><rect x="13" y="8" width="1" height="1" fill="#1c5e3e"></rect><rect x="14" y="8" width="1" height="1" fill="#1c5e3e"></rect><rect x="15" y="8" width="1" height="1" fill="#1c5e3e"></rect><rect x="6" y="9" width="1" height="1" fill="#1c5e3e"></rect><rect x="7" y="9" width="1" height="1" fill="#1c5e3e"></rect><rect x="8" y="9" width="1" height="1" fill="#1c5e3e"></rect><rect x="9" y="9" width="1" height="1" fill="#1c5e3e"></rect><rect x="10" y="9" width="1" height="1" fill="#1c5e3e"></rect><rect x="11" y="9" width="1" height="1" fill="#1c5e3e"></rect><rect x="12" y="9" width="1" height="1" fill="#1c5e3e"></rect><rect x="13" y="9" width="1" height="1" fill="#1c5e3e"></rect><rect x="14" y="9" width="1" height="1" fill="#1c5e3e"></rect><rect x="15" y="9" width="1" height="1" fill="#1c5e3e"></rect><rect x="16" y="9" width="1" height="1" fill="#1c5e3e"></rect><rect x="6" y="10" width="1" height="1" fill="#1c5e3e"></rect><rect x="7" y="10" width="1" height="1" fill="#1c5e3e"></rect><rect x="8" y="10" width="1" height="1" fill="#1c5e3e"></rect><rect x="9" y="10" width="1" height="1" fill="#1c5e3e"></rect><rect x="10" y="10" width="1" height="1" fill="#1c5e3e"></rect><rect x="11" y="10" width="1" height="1" fill="#1c5e3e"></rect><rect x="12" y="10" width="1" height="1" fill="#1c5e3e"></rect><rect x="13" y="10" width="1" height="1" fill="#1c5e3e"></rect><rect x="14" y="10" width="1" height="1" fill="#1c5e3e"></rect><rect x="15" y="10" width="1" height="1" fill="#1c5e3e"></rect><rect x="16" y="10" width="1" height="1" fill="#1c5e3e"></rect><rect x="6" y="11" width="1" height="1" fill="#1c5e3e"></rect><rect x="7" y="11" width="1" height="1" fill="#1c5e3e"></rect><rect x="8" y="11" width="1" height="1" fill="#1c5e3e"></rect><rect x="9" y="11" width="1" height="1" fill="#1c5e3e"></rect><rect x="10" y="11" width="1" height="1" fill="#1c5e3e"></rect><rect x="11" y="11" width="1" height="1" fill="#1c5e3e"></rect><rect x="12" y="11" width="1" height="1" fill="#1c5e3e"></rect><rect x="13" y="11" width="1" height="1" fill="#1c5e3e"></rect><rect x="14" y="11" width="1" height="1" fill="#1c5e3e"></rect><rect x="15" y="11" width="1" height="1" fill="#1c5e3e"></rect><rect x="16" y="11" width="1" height="1" fill="#1c5e3e"></rect><rect x="5" y="12" width="1" height="1" fill="#1c5e3e"></rect><rect x="6" y="12" width="1" height="1" fill="#1c5e3e"></rect><rect x="7" y="12" width="1" height="1" fill="#1c5e3e"></rect><rect x="8" y="12" width="1" height="1" fill="#1c5e3e"></rect><rect x="9" y="12" width="1" height="1" fill="#1c5e3e"></rect><rect x="10" y="12" width="1" height="1" fill="#1c5e3e"></rect><rect x="11" y="12" width="1" height="1" fill="#1c5e3e"></rect><rect x="12" y="12" width="1" height="1" fill="#1c5e3e"></rect><rect x="13" y="12" width="1" height="1" fill="#1c5e3e"></rect><rect x="14" y="12" width="1" height="1" fill="#1c5e3e"></rect><rect x="15" y="12" width="1" height="1" fill="#1c5e3e"></rect><rect x="16" y="12" width="1" height="1" fill="#1c5e3e"></rect><rect x="17" y="12" width="1" height="1" fill="#1c5e3e"></rect><rect x="6" y="13" width="1" height="1" fill="#1c5e3e"></rect><rect x="7" y="13" width="1" height="1" fill="#1c5e3e"></rect><rect x="8" y="13" width="1" height="1" fill="#1c5e3e"></rect><rect x="9" y="13" width="1" height="1" fill="#1c5e3e"></rect><rect x="10" y="13" width="1" height="1" fill="#1c5e3e"></rect><rect x="11" y="13" width="1" height="1" fill="#1c5e3e"></rect><rect x="12" y="13" width="1" height="1" fill="#1c5e3e"></rect><rect x="13" y="13" width="1" height="1" fill="#1c5e3e"></rect><rect x="14" y="13" width="1" height="1" fill="#1c5e3e"></rect><rect x="15" y="13" width="1" height="1" fill="#1c5e3e"></rect><rect x="16" y="13" width="1" height="1" fill="#1c5e3e"></rect><rect x="6" y="14" width="1" height="1" fill="#1c5e3e"></rect><rect x="7" y="14" width="1" height="1" fill="#1c5e3e"></rect><rect x="8" y="14" width="1" height="1" fill="#1c5e3e"></rect><rect x="9" y="14" width="1" height="1" fill="#1c5e3e"></rect><rect x="10" y="14" width="1" height="1" fill="#1c5e3e"></rect><rect x="11" y="14" width="1" height="1" fill="#1c5e3e"></rect><rect x="12" y="14" width="1" height="1" fill="#1c5e3e"></rect><rect x="13" y="14" width="1" height="1" fill="#1c5e3e"></rect><rect x="14" y="14" width="1" height="1" fill="#1c5e3e"></rect><rect x="15" y="14" width="1" height="1" fill="#1c5e3e"></rect><rect x="16" y="14" width="1" height="1" fill="#1c5e3e"></rect><rect x="6" y="15" width="1" height="1" fill="#1c5e3e"></rect><rect x="7" y="15" width="1" height="1" fill="#1c5e3e"></rect><rect x="8" y="15" width="1" height="1" fill="#1c5e3e"></rect><rect x="9" y="15" width="1" height="1" fill="#1c5e3e"></rect><rect x="10" y="15" width="1" height="1" fill="#1c5e3e"></rect><rect x="11" y="15" width="1" height="1" fill="#1c5e3e"></rect><rect x="12" y="15" width="1" height="1" fill="#1c5e3e"></rect><rect x="13" y="15" width="1" height="1" fill="#1c5e3e"></rect><rect x="14" y="15" width="1" height="1" fill="#1c5e3e"></rect><rect x="15" y="15" width="1" height="1" fill="#1c5e3e"></rect><rect x="16" y="15" width="1" height="1" fill="#1c5e3e"></rect><rect x="7" y="16" width="1" height="1" fill="#1c5e3e"></rect><rect x="8" y="16" width="1" height="1" fill="#1c5e3e"></rect><rect x="9" y="16" width="1" height="1" fill="#1c5e3e"></rect><rect x="10" y="16" width="1" height="1" fill="#1c5e3e"></rect><rect x="11" y="16" width="1" height="1" fill="#1c5e3e"></rect><rect x="12" y="16" width="1" height="1" fill="#1c5e3e"></rect><rect x="13" y="16" width="1" height="1" fill="#1c5e3e"></rect><rect x="14" y="16" width="1" height="1" fill="#1c5e3e"></rect><rect x="15" y="16" width="1" height="1" fill="#1c5e3e"></rect><rect x="8" y="17" width="1" height="1" fill="#1c5e3e"></rect><rect x="9" y="17" width="1" height="1" fill="#1c5e3e"></rect><rect x="10" y="17" width="1" height="1" fill="#1c5e3e"></rect><rect x="11" y="17" width="1" height="1" fill="#1c5e3e"></rect><rect x="12" y="17" width="1" height="1" fill="#1c5e3e"></rect><rect x="13" y="17" width="1" height="1" fill="#1c5e3e"></rect><rect x="14" y="17" width="1" height="1" fill="#1c5e3e"></rect><rect x="11" y="18" width="1" height="1" fill="#1c5e3e"></rect><rect x="5" y="12" width="1" height="1" fill="#46d68c"></rect><rect x="6" y="12" width="1" height="1" fill="#46d68c"></rect><rect x="7" y="12" width="1" height="1" fill="#46d68c"></rect><rect x="8" y="12" width="1" height="1" fill="#46d68c"></rect><rect x="9" y="12" width="1" height="1" fill="#46d68c"></rect><rect x="10" y="12" width="1" height="1" fill="#46d68c"></rect><rect x="11" y="12" width="1" height="1" fill="#46d68c"></rect><rect x="12" y="12" width="1" height="1" fill="#46d68c"></rect><rect x="13" y="12" width="1" height="1" fill="#46d68c"></rect><rect x="14" y="12" width="1" height="1" fill="#46d68c"></rect><rect x="15" y="12" width="1" height="1" fill="#46d68c"></rect><rect x="16" y="12" width="1" height="1" fill="#46d68c"></rect><rect x="17" y="12" width="1" height="1" fill="#46d68c"></rect><rect x="6" y="9" width="1" height="1" fill="#46d68c"></rect><rect x="7" y="15" width="1" height="1" fill="#46d68c"></rect><rect x="16" y="9" width="1" height="1" fill="#46d68c"></rect><rect x="15" y="15" width="1" height="1" fill="#46d68c"></rect><rect x="11" y="6" width="1" height="1" fill="#2a7d52"></rect><rect x="11" y="7" width="1" height="1" fill="#2a7d52"></rect><rect x="11" y="8" width="1" height="1" fill="#2a7d52"></rect><rect x="11" y="9" width="1" height="1" fill="#2a7d52"></rect><rect x="11" y="10" width="1" height="1" fill="#2a7d52"></rect><rect x="11" y="11" width="1" height="1" fill="#2a7d52"></rect><rect x="11" y="12" width="1" height="1" fill="#2a7d52"></rect><rect x="11" y="13" width="1" height="1" fill="#2a7d52"></rect><rect x="11" y="14" width="1" height="1" fill="#2a7d52"></rect><rect x="11" y="15" width="1" height="1" fill="#2a7d52"></rect><rect x="11" y="16" width="1" height="1" fill="#2a7d52"></rect><rect x="11" y="17" width="1" height="1" fill="#2a7d52"></rect><rect x="11" y="18" width="1" height="1" fill="#2a7d52"></rect><rect x="7" y="8" width="1" height="1" fill="#9ff7cb"></rect><rect x="6" y="10" width="1" height="1" fill="#9ff7cb"></rect><rect x="17" y="7" width="2" height="2" fill="#e8a24a"></rect><rect x="16" y="9" width="1" height="1" fill="#f5c074"></rect><rect x="3" y="15" width="2" height="2" fill="#6fd3e0"></rect><rect x="5" y="14" width="1" height="1" fill="#9ff7cb"></rect><rect x="0" y="23" width="22" height="5" fill="#1c5e3e"></rect><rect x="0" y="22" width="22" height="1" fill="#46d68c"></rect><rect x="2" y="24" width="2" height="1" fill="#16291d"></rect><rect x="7" y="24" width="2" height="1" fill="#16291d"></rect><rect x="12" y="24" width="2" height="1" fill="#16291d"></rect><rect x="17" y="24" width="2" height="1" fill="#16291d"></rect></svg>
