<svg xmlns="http://www.w3.org/2000/svg" viewBox="0 0 60 22" width="1320" height="484" shape-rendering="crispEdges"><rect x="0" y="0" width="60" height="22" fill="#0a0d10"></rect><rect x="3" y="2" width="1" height="1" fill="#536b5f"></rect><rect x="10" y="7" width="1" height="1" fill="#536b5f"></rect><rect x="17" y="0" width="1" height="1" fill="#536b5f"></rect><rect x="24" y="5" width="1" height="1" fill="#536b5f"></rect><rect x="31" y="10" width="1" height="1" fill="#536b5f"></rect><rect x="38" y="3" width="1" height="1" fill="#536b5f"></rect><rect x="45" y="8" width="1" height="1" fill="#536b5f"></rect><rect x="52" y="1" width="1" height="1" fill="#536b5f"></rect><rect x="59" y="6" width="1" height="1" fill="#536b5f"></rect><rect x="6" y="11" width="1" height="1" fill="#536b5f"></rect><rect x="13" y="4" width="1" height="1" fill="#536b5f"></rect><rect x="20" y="9" width="1" height="1" fill="#536b5f"></rect><rect x="27" y="2" width="1" height="1" fill="#536b5f"></rect><rect x="34" y="7" width="1" height="1" fill="#536b5f"></rect><rect x="41" y="0" width="1" height="1" fill="#536b5f"></rect><rect x="51" y="1" width="1" height="1" fill="#9ff7cb"></rect><rect x="49" y="2" width="1" height="1" fill="#9ff7cb"></rect><rect x="50" y="2" width="1" height="1" fill="#9ff7cb"></rect><rect x="51" y="2" width="1" height="1" fill="#e8fff4"></rect><rect x="52" y="2" width="1" height="1" fill="#9ff7cb"></rect><rect x="53" y="2" width="1" height="1" fill="#9ff7cb"></rect><rect x="49" y="3" width="1" height="1" fill="#9ff7cb"></rect><rect x="50" y="3" width="1" height="1" fill="#e8fff4"></rect><rect x="51" y="3" width="1" height="1" fill="#e8fff4"></rect><rect x="52" y="3" width="1" height="1" fill="#e8fff4"></rect><rect x="53" y="3" width="1" height="1" fill="#9ff7cb"></rect><rect x="48" y="4" width="1" height="1" fill="#9ff7cb"></rect><rect x="49" y="4" width="1" height="1" fill="#e8fff4"></rect><rect x="50" y="4" width="1" height="1" fill="#e8fff4"></rect><rect x="51" y="4" width="1" height="1" fill="#e8fff4"></rect><rect x="52" y="4" width="1" height="1" fill="#e8fff4"></rect><rect x="53" y="4" width="1" height="1" fill="#e8fff4"></rect><rect x="54" y="4" width="1" height="1" fill="#9ff7cb"></rect><rect x="49" y="5" width="1" height="1" fill="#9ff7cb"></rect><rect x="50" y="5" width="1" height="1" fill="#e8fff4"></rect><rect x="51" y="5" width="1" height="1" fill="#e8fff4"></rect><rect x="52" y="5" width="1" height="1" fill="#e8fff4"></rect><rect x="53" y="5" width="1" height="1" fill="#9ff7cb"></rect><rect x="49" y="6" width="1" height="1" fill="#9ff7cb"></rect><rect x="50" y="6" width="1" height="1" fill="#9ff7cb"></rect><rect x="51" y="6" width="1" height="1" fill="#e8fff4"></rect><rect x="52" y="6" width="1" height="1" fill="#9ff7cb"></rect><rect x="53" y="6" width="1" height="1" fill="#9ff7cb"></rect><rect x="51" y="7" width="1" height="1" fill="#9ff7cb"></rect><rect x="49" y="3" width="1" height="1" fill="#0a0d10"></rect><rect x="50" y="3" width="1" height="1" fill="#0a0d10"></rect><rect x="51" y="3" width="1" height="1" fill="#0a0d10"></rect><rect x="48" y="4" width="1" height="1" fill="#0a0d10"></rect><rect x="49" y="4" width="1" height="1" fill="#0a0d10"></rect><rect x="50" y="4" width="1" height="1" fill="#0a0d10"></rect><rect x="51" y="4" width="1" height="1" fill="#0a0d10"></rect><rect x="52" y="4" width="1" height="1" fill="#0a0d10"></rect><rect x="49" y="5" width="1" height="1" fill="#0a0d10"></rect><rect x="50" y="5" width="1" height="1" fill="#0a0d10"></rect><rect x="51" y="5" width="1" height="1" fill="#0a0d10"></rect><rect x="52" y="5" width="1" height="1" fill="#0a0d10"></rect><rect x="49" y="6" width="1" height="1" fill="#0a0d10"></rect><rect x="50" y="6" width="1" height="1" fill="#0a0d10"></rect><rect x="51" y="6" width="1" height="1" fill="#0a0d10"></rect><rect x="52" y="6" width="1" height="1" fill="#0a0d10"></rect><rect x="51" y="7" width="1" height="1" fill="#0a0d10"></rect><rect x="30" y="4" width="1" height="1" fill="#1c5e3e"></rect><rect x="27" y="5" width="1" height="1" fill="#1c5e3e"></rect><rect x="28" y="5" width="1" height="1" fill="#1c5e3e"></rect><rect x="29" y="5" width="1" height="1" fill="#1c5e3e"></rect><rect x="30" y="5" width="1" height="1" fill="#1c5e3e"></rect><rect x="31" y="5" width="1" height="1" fill="#1c5e3e"></rect><rect x="32" y="5" width="1" height="1" fill="#1c5e3e"></rect><rect x="33" y="5" width="1" height="1" fill="#1c5e3e"></rect><rect x="26" y="6" width="1" height="1" fill="#1c5e3e"></rect><rect x="27" y="6" width="1" height="1" fill="#1c5e3e"></rect><rect x="28" y="6" width="1" height="1" fill="#1c5e3e"></rect><rect x="29" y="6" width="1" height="1" fill="#1c5e3e"></rect><rect x="30" y="6" width="1" height="1" fill="#1c5e3e"></rect><rect x="31" y="6" width="1" height="1" fill="#1c5e3e"></rect><rect x="32" y="6" width="1" height="1" fill="#1c5e3e"></rect><rect x="33" y="6" width="1" height="1" fill="#1c5e3e"></rect><rect x="34" y="6" width="1" height="1" fill="#1c5e3e"></rect><rect x="25" y="7" width="1" height="1" fill="#1c5e3e"></rect><rect x="26" y="7" width="1" height="1" fill="#1c5e3e"></rect><rect x="27" y="7" width="1" height="1" fill="#1c5e3e"></rect><rect x="28" y="7" width="1" height="1" fill="#1c5e3e"></rect><rect x="29" y="7" width="1" height="1" fill="#1c5e3e"></rect><rect x="30" y="7" width="1" height="1" fill="#1c5e3e"></rect><rect x="31" y="7" width="1" height="1" fill="#1c5e3e"></rect><rect x="32" y="7" width="1" height="1" fill="#1c5e3e"></rect><rect x="33" y="7" width="1" height="1" fill="#1c5e3e"></rect><rect x="34" y="7" width="1" height="1" fill="#1c5e3e"></rect><rect x="35" y="7" width="1" height="1" fill="#1c5e3e"></rect><rect x="25" y="8" width="1" height="1" fill="#1c5e3e"></rect><rect x="26" y="8" width="1" height="1" fill="#1c5e3e"></rect><rect x="27" y="8" width="1" height="1" fill="#1c5e3e"></rect><rect x="28" y="8" width="1" height="1" fill="#1c5e3e"></rect><rect x="29" y="8" width="1" height="1" fill="#1c5e3e"></rect><rect x="30" y="8" width="1" height="1" fill="#1c5e3e"></rect><rect x="31" y="8" width="1" height="1" fill="#1c5e3e"></rect><rect x="32" y="8" width="1" height="1" fill="#1c5e3e"></rect><rect x="33" y="8" width="1" height="1" fill="#1c5e3e"></rect><rect x="34" y="8" width="1" height="1" fill="#1c5e3e"></rect><rect x="35" y="8" width="1" height="1" fill="#1c5e3e"></rect><rect x="25" y="9" width="1" height="1" fill="#1c5e3e"></rect><rect x="26" y="9" width="1" height="1" fill="#1c5e3e"></rect><rect x="27" y="9" width="1" height="1" fill="#1c5e3e"></rect><rect x="28" y="9" width="1" height="1" fill="#1c5e3e"></rect><rect x="29" y="9" width="1" height="1" fill="#1c5e3e"></rect><rect x="30" y="9" width="1" height="1" fill="#1c5e3e"></rect><rect x="31" y="9" width="1" height="1" fill="#1c5e3e"></rect><rect x="32" y="9" width="1" height="1" fill="#1c5e3e"></rect><rect x="33" y="9" width="1" height="1" fill="#1c5e3e"></rect><rect x="34" y="9" width="1" height="1" fill="#1c5e3e"></rect><rect x="35" y="9" width="1" height="1" fill="#1c5e3e"></rect><rect x="24" y="10" width="1" height="1" fill="#1c5e3e"></rect><rect x="25" y="10" width="1" height="1" fill="#1c5e3e"></rect><rect x="26" y="10" width="1" height="1" fill="#1c5e3e"></rect><rect x="27" y="10" width="1" height="1" fill="#1c5e3e"></rect><rect x="28" y="10" width="1" height="1" fill="#1c5e3e"></rect><rect x="29" y="10" width="1" height="1" fill="#1c5e3e"></rect><rect x="30" y="10" width="1" height="1" fill="#1c5e3e"></rect><rect x="31" y="10" width="1" height="1" fill="#1c5e3e"></rect><rect x="32" y="10" width="1" height="1" fill="#1c5e3e"></rect><rect x="33" y="10" width="1" height="1" fill="#1c5e3e"></rect><rect x="34" y="10" width="1" height="1" fill="#1c5e3e"></rect><rect x="35" y="10" width="1" height="1" fill="#1c5e3e"></rect><rect x="36" y="10" width="1" height="1" fill="#1c5e3e"></rect><rect x="25" y="11" width="1" height="1" fill="#1c5e3e"></rect><rect x="26" y="11" width="1" height="1" fill="#1c5e3e"></rect><rect x="27" y="11" width="1" height="1" fill="#1c5e3e"></rect><rect x="28" y="11" width="1" height="1" fill="#1c5e3e"></rect><rect x="29" y="11" width="1" height="1" fill="#1c5e3e"></rect><rect x="30" y="11" width="1" height="1" fill="#1c5e3e"></rect><rect x="31" y="11" width="1" height="1" fill="#1c5e3e"></rect><rect x="32" y="11" width="1" height="1" fill="#1c5e3e"></rect><rect x="33" y="11" width="1" height="1" fill="#1c5e3e"></rect><rect x="34" y="11" width="1" height="1" fill="#1c5e3e"></rect><rect x="35" y="11" width="1" height="1" fill="#1c5e3e"></rect><rect x="25" y="12" width="1" height="1" fill="#1c5e3e"></rect><rect x="26" y="12" width="1" height="1" fill="#1c5e3e"></rect><rect x="27" y="12" width="1" height="1" fill="#1c5e3e"></rect><rect x="28" y="12" width="1" height="1" fill="#1c5e3e"></rect><rect x="29" y="12" width="1" height="1" fill="#1c5e3e"></rect><rect x="30" y="12" width="1" height="1" fill="#1c5e3e"></rect><rect x="31" y="12" width="1" height="1" fill="#1c5e3e"></rect><rect x="32" y="12" width="1" height="1" fill="#1c5e3e"></rect><rect x="33" y="12" width="1" height="1" fill="#1c5e3e"></rect><rect x="34" y="12" width="1" height="1" fill="#1c5e3e"></rect><rect x="35" y="12" width="1" height="1" fill="#1c5e3e"></rect><rect x="25" y="13" width="1" height="1" fill="#1c5e3e"></rect><rect x="26" y="13" width="1" height="1" fill="#1c5e3e"></rect><rect x="27" y="13" width="1" height="1" fill="#1c5e3e"></rect><rect x="28" y="13" width="1" height="1" fill="#1c5e3e"></rect><rect x="29" y="13" width="1" height="1" fill="#1c5e3e"></rect><rect x="30" y="13" width="1" height="1" fill="#1c5e3e"></rect><rect x="31" y="13" width="1" height="1" fill="#1c5e3e"></rect><rect x="32" y="13" width="1" height="1" fill="#1c5e3e"></rect><rect x="33" y="13" width="1" height="1" fill="#1c5e3e"></rect><rect x="34" y="13" width="1" height="1" fill="#1c5e3e"></rect><rect x="35" y="13" width="1" height="1" fill="#1c5e3e"></rect><rect x="26" y="14" width="1" height="1" fill="#1c5e3e"></rect><rect x="27" y="14" width="1" height="1" fill="#1c5e3e"></rect><rect x="28" y="14" width="1" height="1" fill="#1c5e3e"></rect><rect x="29" y="14" width="1" height="1" fill="#1c5e3e"></rect><rect x="30" y="14" width="1" height="1" fill="#1c5e3e"></rect><rect x="31" y="14" width="1" height="1" fill="#1c5e3e"></rect><rect x="32" y="14" width="1" height="1" fill="#1c5e3e"></rect><rect x="33" y="14" width="1" height="1" fill="#1c5e3e"></rect><rect x="34" y="14" width="1" height="1" fill="#1c5e3e"></rect><rect x="27" y="15" width="1" height="1" fill="#1c5e3e"></rect><rect x="28" y="15" width="1" height="1" fill="#1c5e3e"></rect><rect x="29" y="15" width="1" height="1" fill="#1c5e3e"></rect><rect x="30" y="15" width="1" height="1" fill="#1c5e3e"></rect><rect x="31" y="15" width="1" height="1" fill="#1c5e3e"></rect><rect x="32" y="15" width="1" height="1" fill="#1c5e3e"></rect><rect x="33" y="15" width="1" height="1" fill="#1c5e3e"></rect><rect x="30" y="16" width="1" height="1" fill="#1c5e3e"></rect><rect x="24" y="10" width="1" height="1" fill="#46d68c"></rect><rect x="25" y="10" width="1" height="1" fill="#46d68c"></rect><rect x="26" y="10" width="1" height="1" fill="#46d68c"></rect><rect x="27" y="10" width="1" height="1" fill="#46d68c"></rect><rect x="28" y="10" width="1" height="1" fill="#46d68c"></rect><rect x="29" y="10" width="1" height="1" fill="#46d68c"></rect><rect x="30" y="10" width="1" height="1" fill="#46d68c"></rect><rect x="31" y="10" width="1" height="1" fill="#46d68c"></rect><rect x="32" y="10" width="1" height="1" fill="#46d68c"></rect><rect x="33" y="10" width="1" height="1" fill="#46d68c"></rect><rect x="34" y="10" width="1" height="1" fill="#46d68c"></rect><rect x="35" y="10" width="1" height="1" fill="#46d68c"></rect><rect x="36" y="10" width="1" height="1" fill="#46d68c"></rect><rect x="30" y="4" width="1" height="1" fill="#2a7d52"></rect><rect x="30" y="5" width="1" height="1" fill="#2a7d52"></rect><rect x="30" y="6" width="1" height="1" fill="#2a7d52"></rect><rect x="30" y="7" width="1" height="1" fill="#2a7d52"></rect><rect x="30" y="8" width="1" height="1" fill="#2a7d52"></rect><rect x="30" y="9" width="1" height="1" fill="#2a7d52"></rect><rect x="30" y="10" width="1" height="1" fill="#2a7d52"></rect><rect x="30" y="11" width="1" height="1" fill="#2a7d52"></rect><rect x="30" y="12" width="1" height="1" fill="#2a7d52"></rect><rect x="30" y="13" width="1" height="1" fill="#2a7d52"></rect><rect x="30" y="14" width="1" height="1" fill="#2a7d52"></rect><rect x="30" y="15" width="1" height="1" fill="#2a7d52"></rect><rect x="30" y="16" width="1" height="1" fill="#2a7d52"></rect><rect x="27" y="7" width="1" height="1" fill="#9ff7cb"></rect><rect x="25" y="8" width="1" height="1" fill="#9ff7cb"></rect><rect x="12" y="6" width="2" height="2" fill="#e8a24a"></rect><rect x="12" y="6" width="1" height="1" fill="#9ff7cb"></rect><rect x="48" y="7" width="2" height="2" fill="#6fd3e0"></rect><rect x="48" y="7" width="1" height="1" fill="#9ff7cb"></rect><rect x="44" y="14" width="2" height="2" fill="#9ff7cb"></rect><rect x="44" y="14" width="1" height="1" fill="#9ff7cb"></rect><rect x="19" y="8" width="1" height="1" fill="#2a7d52"></rect><rect x="24" y="9" width="1" height="1" fill="#2a7d52"></rect><rect x="37" y="9" width="1" height="1" fill="#2a7d52"></rect><rect x="42" y="11" width="1" height="1" fill="#2a7d52"></rect><rect x="0" y="19" width="60" height="3" fill="#1c5e3e"></rect><rect x="0" y="18" width="60" height="1" fill="#46d68c"></rect><rect x="2" y="20" width="2" height="1" fill="#16291d"></rect><rect x="8" y="20" width="2" height="1" fill="#16291d"></rect><rect x="14" y="20" width="2" height="1" fill="#16291d"></rect><rect x="20" y="20" width="2" height="1" fill="#16291d"></rect><rect x="26" y="20" width="2" height="1" fill="#16291d"></rect><rect x="32" y="20" width="2" height="1" fill="#16291d"></rect><rect x="38" y="20" width="2" height="1" fill="#16291d"></rect><rect x="44" y="20" width="2" height="1" fill="#16291d"></rect><rect x="50" y="20" width="2" height="1" fill="#16291d"></rect><rect x="56" y="20" width="2" height="1" fill="#16291d"></rect></svg>
